# xmcd
#
# Track frame offsets:
#	150
#	20119
#	42944
#	61485
#	82850
#	105556
#	125540
#	151552
#	173668
#	195622
#
# Disc length: 2776
#
# Revision: 1
# Processed by: cddbd v1.5.1PL0 Copyright (c) Steve Scherf et al.
# Submitted via: CDex 1.50beta10
# Normalized: r0:TRMNUM
#
DISCID=740ad60a
DTITLE=jennifer Warnes - The hunter
DYEAR=1992
DGENRE=Country
TTITLE0=rock you gently
TTITLE1=somewere, sombody
TTITLE2=big noise, new york
TTITLE3=true emotion
TTITLE4=prerending to care
TTITLE5=the whole of the moon
TTITLE6=lights of lousianne
TTITLE7=way down deep
TTITLE8=the runner
TTITLE9=I can't hide
EXTD=YEAR: 1992
EXTT0=
EXTT1=
EXTT2=
EXTT3=
EXTT4=
EXTT5=
EXTT6=
EXTT7=
EXTT8=
EXTT9=
PLAYORDER=
